<svg xmlns="http://www.w3.org/2000/svg" width="800" height="600" viewBox="0 0 800 600" fill="none">
  <defs>
    <linearGradient id="mkbg" x1="0" y1="0" x2="0" y2="1">
      <stop offset="0" stop-color="#3a2418"/>
      <stop offset="1" stop-color="#5a2f26"/>
    </linearGradient>
  </defs>
  <rect width="800" height="600" fill="url(#mkbg)"/>
  <!-- warm haze -->
  <rect width="800" height="600" fill="#f2a06a" opacity="0.06"/>
  <!-- stall awnings -->
  <g>
    <path d="M40 210 L280 210 L260 264 L60 264 Z" fill="#e25067"/>
    <path d="M40 210 L280 210 L280 224 L40 224 Z" fill="#b0344e"/>
    <path d="M300 200 L540 200 L522 256 L318 256 Z" fill="#f2a06a"/>
    <path d="M300 200 L540 200 L540 214 L300 214 Z" fill="#d98249"/>
    <path d="M560 210 L780 210 L762 264 L578 264 Z" fill="#6e4e9c"/>
    <path d="M560 210 L780 210 L780 224 L560 224 Z" fill="#553a7d"/>
  </g>
  <!-- string lights -->
  <path d="M20 180 Q400 140 780 180" stroke="#b98a5a" stroke-width="3" fill="none" opacity="0.7"/>
  <g fill="#ffd98a">
    <circle cx="120" cy="169" r="7"/><circle cx="240" cy="160" r="7"/>
    <circle cx="360" cy="153" r="7"/><circle cx="480" cy="153" r="7"/>
    <circle cx="600" cy="160" r="7"/><circle cx="700" cy="170" r="7"/>
  </g>
  <g fill="#ffd98a" opacity="0.22">
    <circle cx="120" cy="169" r="18"/><circle cx="360" cy="153" r="18"/><circle cx="600" cy="160" r="18"/>
  </g>
  <!-- produce crates -->
  <g>
    <rect x="70" y="360" width="150" height="90" rx="8" fill="#7a4a2e"/>
    <circle cx="100" cy="372" r="14" fill="#e2673f"/><circle cx="132" cy="368" r="14" fill="#e88a4a"/>
    <circle cx="164" cy="372" r="14" fill="#c94f3a"/><circle cx="196" cy="368" r="14" fill="#e2673f"/>
    <rect x="310" y="360" width="150" height="90" rx="8" fill="#6e4a30"/>
    <circle cx="340" cy="370" r="14" fill="#3f7a4a"/><circle cx="372" cy="366" r="14" fill="#4f9a5a"/>
    <circle cx="404" cy="370" r="14" fill="#3f7a4a"/><circle cx="436" cy="366" r="14" fill="#5aa96a"/>
    <rect x="560" y="360" width="150" height="90" rx="8" fill="#7a4a2e"/>
    <circle cx="590" cy="370" r="14" fill="#d8b24a"/><circle cx="622" cy="366" r="14" fill="#e2c05a"/>
    <circle cx="654" cy="370" r="14" fill="#c9a03a"/><circle cx="686" cy="366" r="14" fill="#e2c05a"/>
  </g>
  <!-- figures -->
  <g fill="#1c0f14" opacity="0.72">
    <circle cx="250" cy="470" r="26"/><rect x="228" y="492" width="44" height="90" rx="20"/>
    <circle cx="520" cy="478" r="24"/><rect x="500" y="498" width="40" height="84" rx="18"/>
  </g>
</svg>
